<svg width="38" height="39" viewBox="0 0 38 39" fill="none" xmlns="http://www.w3.org/2000/svg">
  <path fill-rule="evenodd" clip-rule="evenodd"
    d="M27.3333 0.755859H10.6667C4.91371 0.755859 0.25 5.41957 0.25 11.1725V27.8392C0.25 33.5921 4.91371 38.2559 10.6667 38.2559H27.3333C33.0862 38.2559 37.75 33.5921 37.75 27.8392V11.1725C37.75 5.41957 33.0862 0.755859 27.3333 0.755859ZM34.1042 27.8392C34.0927 31.5738 31.0679 34.5986 27.3333 34.61H10.6667C6.93198 34.5986 3.90727 31.5738 3.89583 27.8392V11.1725C3.90727 7.43784 6.93198 4.41313 10.6667 4.40169H27.3333C31.0679 4.41313 34.0927 7.43784 34.1042 11.1725V27.8392ZM28.8958 11.6934C30.0465 11.6934 30.9792 10.7606 30.9792 9.61003C30.9792 8.45944 30.0465 7.52669 28.8958 7.52669C27.7452 7.52669 26.8125 8.45944 26.8125 9.61003C26.8125 10.7606 27.7452 11.6934 28.8958 11.6934ZM19 10.1309C13.8223 10.1309 9.625 14.3282 9.625 19.5059C9.625 24.6836 13.8223 28.8809 19 28.8809C24.1777 28.8809 28.375 24.6836 28.375 19.5059C28.3806 17.0177 27.3946 14.63 25.6352 12.8706C23.8758 11.1113 21.4881 10.1253 19 10.1309ZM13.2708 19.5059C13.2708 22.67 15.8358 25.235 19 25.235C22.1642 25.235 24.7292 22.67 24.7292 19.5059C24.7292 16.3417 22.1642 13.7767 19 13.7767C15.8358 13.7767 13.2708 16.3417 13.2708 19.5059Z"
    fill="currentColor" />
</svg>
