<svg width="24" height="24" viewBox="0 0 24 24" fill="none" xmlns="http://www.w3.org/2000/svg">
<path fill-rule="evenodd" clip-rule="evenodd" d="M14.6481 1.30748C14.2656 1.14838 13.8266 1.32944 13.6675 1.71188L12.6275 4.21188C12.4684 4.59432 12.6495 5.03333 13.0319 5.19242C13.4144 5.35152 13.8534 5.17046 14.0125 4.78802L15.0525 2.28802C15.2116 1.90558 15.0305 1.46658 14.6481 1.30748ZM18.3029 1.31384C17.924 1.14655 17.4812 1.31812 17.3139 1.69705L13.8644 9.51072C13.6679 9.45438 13.4678 9.40673 13.2644 9.36819L9.50905 1.67108C9.32742 1.29881 8.8784 1.14427 8.50613 1.3259C8.13386 1.50753 7.97931 1.95655 8.16094 2.32882L11.5451 9.26504C10.8901 9.30862 10.2607 9.44564 9.66998 9.66289L5.67082 1.66454C5.48557 1.29406 5.03507 1.14389 4.66459 1.32913C4.2941 1.51437 4.14393 1.96488 4.32917 2.33536L8.32881 10.3346C6.47569 11.538 5.25 13.6258 5.25 16C5.25 19.7279 8.27207 22.75 12 22.75C15.7279 22.75 18.75 19.7279 18.75 16C18.75 13.4508 17.3369 11.2317 15.2513 10.0832L18.6861 2.30285C18.8534 1.92392 18.6818 1.48112 18.3029 1.31384ZM12.6701 10.7923C15.2532 11.1214 17.25 13.3275 17.25 16C17.25 18.8994 14.8995 21.25 12 21.25C9.1005 21.25 6.75 18.8994 6.75 16C6.75 13.1005 9.1005 10.75 12 10.75C12.227 10.75 12.4507 10.7644 12.6701 10.7923Z" fill="black"/>
<path fill-rule="evenodd" clip-rule="evenodd" d="M12.8354 12.8292C12.5813 12.7021 12.2773 12.7296 12.05 12.9L10.05 14.4C9.71863 14.6485 9.65147 15.1186 9.9 15.45C10.1485 15.7814 10.6186 15.8485 10.95 15.6L11.75 15V18.5C11.75 18.9142 12.0858 19.25 12.5 19.25C12.9142 19.25 13.25 18.9142 13.25 18.5V13.5C13.25 13.2159 13.0895 12.9562 12.8354 12.8292Z" fill="black"/>
</svg>
