<svg width="24" height="24" viewBox="0 0 24 24" fill="none" xmlns="http://www.w3.org/2000/svg">
<path fill-rule="evenodd" clip-rule="evenodd" d="M14.6481 1.30748C14.2657 1.14838 13.8267 1.32944 13.6676 1.71188L12.6276 4.21188C12.4685 4.59432 12.6495 5.03333 13.032 5.19242C13.4144 5.35152 13.8534 5.17046 14.0125 4.78802L15.0525 2.28802C15.2116 1.90558 15.0306 1.46658 14.6481 1.30748ZM18.303 1.31384C17.924 1.14655 17.4812 1.31812 17.3139 1.69705L13.8644 9.51072C13.668 9.45438 13.4679 9.40673 13.2645 9.36819L9.50911 1.67108C9.32748 1.29881 8.87846 1.14427 8.50619 1.3259C8.13392 1.50753 7.97938 1.95655 8.16101 2.32882L11.5452 9.26504C10.8902 9.30862 10.2607 9.44564 9.67004 9.66289L5.67088 1.66454C5.48563 1.29406 5.03513 1.14389 4.66465 1.32913C4.29416 1.51437 4.14399 1.96488 4.32924 2.33536L8.32887 10.3346C6.47575 11.538 5.25006 13.6258 5.25006 16C5.25006 19.7279 8.27213 22.75 12.0001 22.75C15.728 22.75 18.7501 19.7279 18.7501 16C18.7501 13.4508 17.337 11.2317 15.2514 10.0832L18.6862 2.30285C18.8535 1.92392 18.6819 1.48112 18.303 1.31384Z" fill="black"/>
</svg>
